<svg width="40" height="40" viewBox="0 0 40 40" fill="none" xmlns="http://www.w3.org/2000/svg">
<g clip-path="url(#clip0_360_30)">
<rect x="0.5" y="0.5" width="39" height="39" rx="19.5" stroke="white"/>
<g clip-path="url(#clip1_360_30)">
<path fill-rule="evenodd" clip-rule="evenodd" d="M20.707 11.293C20.5184 11.1108 20.2658 11.01 20.0036 11.0123C19.7414 11.0146 19.4906 11.1198 19.3052 11.3052C19.1198 11.4906 19.0146 11.7414 19.0123 12.0036C19.01 12.2658 19.1108 12.5184 19.293 12.707L25.586 19H12C11.7348 19 11.4804 19.1054 11.2929 19.2929C11.1054 19.4804 11 19.7348 11 20C11 20.2652 11.1054 20.5196 11.2929 20.7071C11.4804 20.8946 11.7348 21 12 21H25.586L19.293 27.293C19.1975 27.3852 19.1213 27.4956 19.0689 27.6176C19.0165 27.7396 18.9889 27.8708 18.9877 28.0036C18.9866 28.1364 19.0119 28.2681 19.0622 28.3909C19.1125 28.5138 19.1867 28.6255 19.2806 28.7194C19.3745 28.8133 19.4861 28.8875 19.609 28.9378C19.7319 28.9881 19.8636 29.0134 19.9964 29.0122C20.1292 29.0111 20.2604 28.9835 20.3824 28.9311C20.5044 28.8787 20.6148 28.8025 20.707 28.707L28.707 20.707C28.8945 20.5195 28.9998 20.2652 28.9998 20C28.9998 19.7348 28.8945 19.4805 28.707 19.293L20.707 11.293Z" fill="white"/>
</g>
</g>
<defs>
<clipPath id="clip0_360_30">
<rect width="40" height="40" rx="20" fill="white"/>
</clipPath>
<clipPath id="clip1_360_30">
<rect width="18" height="18" fill="white" transform="translate(11 11)"/>
</clipPath>
</defs>
</svg>
