<svg width="40" height="40" viewBox="0 0 40 40" fill="none" xmlns="http://www.w3.org/2000/svg">
<g clip-path="url(#clip0_739_2)">
<rect x="39.5" y="39.5" width="39" height="39" rx="19.5" transform="rotate(180 39.5 39.5)" stroke="white"/>
<g clip-path="url(#clip1_739_2)">
<path fill-rule="evenodd" clip-rule="evenodd" d="M19.293 28.707C19.4816 28.8892 19.7342 28.99 19.9964 28.9877C20.2586 28.9854 20.5094 28.8802 20.6948 28.6948C20.8802 28.5094 20.9854 28.2586 20.9877 27.9964C20.99 27.7342 20.8892 27.4816 20.707 27.293L14.414 21H28C28.2652 21 28.5196 20.8946 28.7071 20.7071C28.8946 20.5196 29 20.2652 29 20C29 19.7348 28.8946 19.4804 28.7071 19.2929C28.5196 19.1054 28.2652 19 28 19H14.414L20.707 12.707C20.8025 12.6148 20.8787 12.5044 20.9311 12.3824C20.9835 12.2604 21.0111 12.1292 21.0123 11.9964C21.0134 11.8636 20.9881 11.7319 20.9378 11.6091C20.8875 11.4862 20.8133 11.3745 20.7194 11.2806C20.6255 11.1867 20.5139 11.1125 20.391 11.0622C20.2681 11.0119 20.1364 10.9866 20.0036 10.9878C19.8708 10.9889 19.7396 11.0165 19.6176 11.0689C19.4956 11.1213 19.3852 11.1975 19.293 11.293L11.293 19.293C11.1055 19.4805 11.0002 19.7348 11.0002 20C11.0002 20.2652 11.1055 20.5195 11.293 20.707L19.293 28.707Z" fill="white"/>
</g>
</g>
<defs>
<clipPath id="clip0_739_2">
<rect x="40" y="40" width="40" height="40" rx="20" transform="rotate(180 40 40)" fill="white"/>
</clipPath>
<clipPath id="clip1_739_2">
<rect width="18" height="18" fill="white" transform="matrix(-1 0 0 -1 29 29)"/>
</clipPath>
</defs>
</svg>
