<svg width="28" height="45" viewBox="0 0 28 45" fill="none" xmlns="http://www.w3.org/2000/svg">
<path d="M11.2956 31.6972C7.80707 31.3333 4.66162 30.4741 1.96863 28.3679C1.63448 28.1059 1.28949 27.8533 0.984557 27.5606C-0.19416 26.4285 -0.312927 25.132 0.619772 23.7959C1.41768 22.6525 2.75711 22.3466 4.14932 23.0031C4.41891 23.1304 4.67576 23.2892 4.92178 23.4598C9.94063 26.9083 16.8353 27.0035 21.873 23.6149C22.3721 23.2322 22.9056 22.9202 23.5239 22.7609C24.7262 22.4522 25.8474 22.8938 26.4926 23.9457C27.2297 25.1471 27.2203 26.3197 26.3121 27.2524C24.919 28.6823 23.2435 29.7168 21.3819 30.4388C19.6216 31.1212 17.6935 31.4648 15.7852 31.6929C16.0732 32.0063 16.2089 32.1605 16.3889 32.3414C18.9801 34.9449 21.5826 37.5375 24.1653 40.149C25.0453 41.0388 25.2291 42.1421 24.7446 43.177C24.2148 44.3082 23.029 45.0523 21.8664 44.9727C21.1297 44.9218 20.5552 44.5551 20.0448 44.0409C18.0894 42.0733 16.0972 40.1419 14.1814 38.137C13.6238 37.554 13.3557 37.6643 12.8636 38.1704C10.8964 40.1956 8.89718 42.1897 6.88615 44.1724C5.98314 45.0627 4.90858 45.2229 3.86136 44.7144C2.74815 44.1748 2.03979 43.0385 2.09446 41.8965C2.13217 41.1241 2.51203 40.534 3.04224 40.0047C5.60658 37.4442 8.16384 34.877 10.722 32.3122C10.8912 32.1416 11.0491 31.9606 11.2956 31.6972Z" fill="white"/>
<path d="M13.4205 22.7774C7.197 22.7562 2.09379 17.5969 2.13008 11.3635C2.16589 5.06131 7.27241 -0.0173933 13.5572 4.47716e-05C19.8547 0.0170115 24.9093 5.16877 24.8777 11.5365C24.8457 17.7571 19.7071 22.7991 13.4205 22.7774ZM19.0765 11.3786C19.0657 8.28358 16.6008 5.81963 13.5119 5.8168C10.3971 5.81351 7.91007 8.32222 7.93411 11.4455C7.9572 14.5287 10.4433 16.9753 13.5407 16.9639C16.6286 16.9531 19.0869 14.4731 19.0765 11.3786Z" fill="white"/>
</svg>
