<svg width="85" height="64" viewBox="0 0 85 64" fill="none" xmlns="http://www.w3.org/2000/svg">
<g clip-path="url(#clip0_293_131)">
<g clip-path="url(#clip1_293_131)">
<path d="M0 30.3424C0 17.7006 0 11.3798 3.24671 6.94868C4.29526 5.51758 5.56442 4.25911 7.00767 3.21938C11.4764 0 17.8509 0 30.6 0H54.4C67.1489 0 73.5234 0 77.9923 3.21938C79.4357 4.25911 80.7048 5.51758 81.7535 6.94868C85 11.3798 85 17.7006 85 30.3424V32.871C85 45.5127 85 51.8336 81.7535 56.2646C80.7048 57.6959 79.4357 58.9544 77.9923 59.9942C73.5234 63.2134 67.1489 63.2134 54.4 63.2134H30.6C17.8509 63.2134 11.4764 63.2134 7.00767 59.9942C5.56442 58.9544 4.29526 57.6959 3.24671 56.2646C0 51.8336 0 45.5127 0 32.871V30.3424Z" fill="#0ED065"/>
<path fill-rule="evenodd" clip-rule="evenodd" d="M23.2422 32.6224L27.3396 28.5595L36.7635 37.9041L57.6598 17.1835L61.7573 21.2464L36.7635 46.0299L23.2422 32.6224Z" fill="black"/>
</g>
</g>
<defs>
<clipPath id="clip0_293_131">
<rect width="85" height="63.2134" fill="white"/>
</clipPath>
<clipPath id="clip1_293_131">
<rect width="85" height="63.2134" fill="white"/>
</clipPath>
</defs>
</svg>
